<svg width="19" height="18" viewBox="0 0 19 18" fill="none" xmlns="http://www.w3.org/2000/svg">
<g clip-path="url(#clip0_195_330)">
<path d="M18.5003 9.00002C18.5003 7.78052 17.9648 6.63002 17.0565 5.90702C17.1615 4.69052 16.7265 3.49877 15.864 2.63552C15.0015 1.77377 13.8128 1.33952 12.6563 1.46927C11.1458 -0.447726 7.88254 -0.483726 6.40729 1.44302C5.18929 1.33502 3.99904 1.77227 3.13654 2.63552C2.27479 3.49802 1.83979 4.69052 1.97029 5.84327C0.0532902 7.35377 0.0165401 10.617 1.94404 12.093C1.83904 13.3095 2.27404 14.5013 3.13654 15.3645C3.99904 16.2263 5.18929 16.662 6.34429 16.5308C7.85479 18.4478 11.118 18.4838 12.5933 16.557C13.8083 16.659 15.0008 16.2278 15.864 15.3645C16.7258 14.502 17.1608 13.3095 17.0303 12.1568C17.9648 11.3708 18.5003 10.2203 18.5003 9.00078V9.00002ZM13.6553 7.92452L10.101 11.3505C9.22879 12.2213 7.80154 12.2138 6.92929 11.3408L5.24029 9.77178C4.93729 9.48978 4.91929 9.01503 5.20129 8.71202C5.48404 8.40827 5.95954 8.39178 6.26104 8.67303L7.96954 10.2608C8.28304 10.5735 8.75704 10.5728 9.04954 10.2795L12.6135 6.84377C12.912 6.55727 13.3868 6.56553 13.674 6.86328C13.962 7.16103 13.953 7.63652 13.6553 7.92377V7.92452Z" fill="#3772FF"/>
</g>
<defs>
<clipPath id="clip0_195_330">
<rect width="18" height="18" fill="white" transform="translate(0.5)"/>
</clipPath>
</defs>
</svg>
