<svg width="25" height="24" viewBox="0 0 25 24" fill="none" xmlns="http://www.w3.org/2000/svg">
<path d="M23.207 11.2929L16.207 4.29292C16.0184 4.11076 15.7658 4.00997 15.5036 4.01224C15.2414 4.01452 14.9906 4.11969 14.8052 4.3051C14.6198 4.49051 14.5146 4.74132 14.5123 5.00352C14.51 5.26571 14.6108 5.51832 14.793 5.70692L20.086 10.9999H2.5C2.23478 10.9999 1.98043 11.1053 1.79289 11.2928C1.60536 11.4803 1.5 11.7347 1.5 11.9999C1.5 12.2651 1.60536 12.5195 1.79289 12.707C1.98043 12.8946 2.23478 12.9999 2.5 12.9999H20.086L14.793 18.2929C14.6975 18.3852 14.6213 18.4955 14.5689 18.6175C14.5165 18.7395 14.4889 18.8707 14.4877 19.0035C14.4866 19.1363 14.5119 19.268 14.5622 19.3909C14.6125 19.5138 14.6867 19.6254 14.7806 19.7193C14.8745 19.8132 14.9861 19.8875 15.109 19.9377C15.2319 19.988 15.3636 20.0133 15.4964 20.0122C15.6292 20.011 15.7604 19.9834 15.8824 19.931C16.0044 19.8786 16.1148 19.8024 16.207 19.7069L23.207 12.7069C23.3945 12.5194 23.4998 12.2651 23.4998 11.9999C23.4998 11.7348 23.3945 11.4804 23.207 11.2929Z" fill="white"/>
</svg>
