<svg width="23" height="17" viewBox="0 0 23 17" fill="none" xmlns="http://www.w3.org/2000/svg">
<path d="M22.207 7.29292L15.207 0.292919C15.0184 0.110761 14.7658 0.00996641 14.5036 0.0122448C14.2414 0.0145233 13.9906 0.119692 13.8052 0.305101C13.6198 0.490509 13.5146 0.741321 13.5123 1.00352C13.51 1.26571 13.6108 1.51832 13.793 1.70692L19.086 6.99992H1.5C1.23478 6.99992 0.98043 7.10528 0.792893 7.29281C0.605357 7.48035 0.5 7.7347 0.5 7.99992C0.5 8.26514 0.605357 8.51949 0.792893 8.70703C0.98043 8.89456 1.23478 8.99992 1.5 8.99992H19.086L13.793 14.2929C13.6975 14.3852 13.6213 14.4955 13.5689 14.6175C13.5165 14.7395 13.4889 14.8707 13.4877 15.0035C13.4866 15.1363 13.5119 15.268 13.5622 15.3909C13.6125 15.5138 13.6867 15.6254 13.7806 15.7193C13.8745 15.8132 13.9861 15.8875 14.109 15.9377C14.2319 15.988 14.3636 16.0133 14.4964 16.0122C14.6292 16.011 14.7604 15.9834 14.8824 15.931C15.0044 15.8786 15.1148 15.8024 15.207 15.7069L22.207 8.70692C22.3945 8.51939 22.4998 8.26508 22.4998 7.99992C22.4998 7.73475 22.3945 7.48045 22.207 7.29292Z" fill="white"/>
</svg>
