<svg width="30" height="25" viewBox="0 0 30 25" fill="none" xmlns="http://www.w3.org/2000/svg">
<path d="M2.69333 24.0169C1.92556 24.0169 1.285 23.7603 0.771667 23.2469C0.258333 22.7336 0.00111111 22.0925 0 21.3236V3.37693C0 2.60915 0.257222 1.96859 0.771667 1.45526C1.28611 0.941927 1.92611 0.684705 2.69167 0.683594H27.3083C28.075 0.683594 28.715 0.940816 29.2283 1.45526C29.7417 1.9697 29.9989 2.61026 30 3.37693V21.3253C30 22.0919 29.7428 22.7325 29.2283 23.2469C28.7139 23.7614 28.0739 24.018 27.3083 24.0169H2.69333ZM15 12.5436L1.66667 3.82526V21.3253C1.66667 21.6241 1.76278 21.8697 1.955 22.0619C2.14722 22.2541 2.39333 22.3503 2.69333 22.3503H27.3083C27.6072 22.3503 27.8528 22.2541 28.045 22.0619C28.2372 21.8697 28.3333 21.6236 28.3333 21.3236V3.82359L15 12.5436ZM15 10.6836L27.82 2.35026H2.18L15 10.6836ZM1.66667 3.82526V2.35026V21.3253C1.66667 21.6241 1.76278 21.8697 1.955 22.0619C2.14722 22.2541 2.39333 22.3503 2.69333 22.3503H1.66667V3.82526Z" fill="#3772FF"/>
</svg>
