<svg width="77" height="43" viewBox="0 0 77 43" fill="none" xmlns="http://www.w3.org/2000/svg">
<path d="M12.18 27.1742C12.26 28.5742 12.56 29.8342 13.08 30.9542C13.64 32.0342 14.46 32.8942 15.54 33.5342C16.62 34.1742 17.94 34.4942 19.5 34.4942C20.54 34.4942 21.5 34.3542 22.38 34.0742C23.26 33.7542 23.96 33.2942 24.48 32.6942C25.04 32.0942 25.32 31.3542 25.32 30.4742C25.32 29.5142 25.04 28.7342 24.48 28.1342C23.92 27.5342 23.26 27.0942 22.5 26.8142C21.74 26.5342 20.8 26.2542 19.68 25.9742L12.84 24.0542C9.28 23.1342 6.62 21.7542 4.86 19.9142C3.14 18.0342 2.28 15.6742 2.28 12.8342C2.28 10.3542 2.96 8.23422 4.32 6.47422C5.68 4.67422 7.56 3.31422 9.96 2.39422C12.36 1.43422 15.12 0.954216 18.24 0.954216C21.32 0.954216 24.12 1.43422 26.64 2.39422C29.16 3.31422 31.24 4.79422 32.88 6.83422C34.56 8.83422 35.56 11.3542 35.88 14.3942H24.9C24.82 13.1942 24.48 12.1542 23.88 11.2742C23.28 10.3542 22.5 9.67422 21.54 9.23422C20.58 8.79422 19.5 8.57422 18.3 8.57422C16.86 8.57422 15.6 8.91422 14.52 9.59422C13.44 10.2342 12.9 11.1142 12.9 12.2342C12.9 13.3142 13.28 14.1742 14.04 14.8142C14.84 15.4542 16.02 15.9542 17.58 16.3142L25.02 18.2342C28.46 19.1142 31.14 20.4542 33.06 22.2542C35.02 24.0142 36 26.4742 36 29.6342C36 32.2342 35.3 34.4942 33.9 36.4142C32.54 38.2942 30.58 39.7542 28.02 40.7942C25.5 41.7942 22.58 42.2942 19.26 42.2942C15.98 42.2942 13.02 41.7942 10.38 40.7942C7.78 39.7542 5.62 38.1142 3.9 35.8742C2.22 33.5942 1.22 30.6942 0.9 27.1742H12.18ZM62.5534 33.1142H48.5134L45.7534 41.5742H35.0734L48.5734 1.67422H62.3134L76.1134 41.5742H65.3734L62.5534 33.1142ZM60.5134 25.6142L57.3934 15.9542C56.8334 14.1142 56.3534 11.9942 55.9534 9.59422H54.9334L54.8734 10.1342C54.5134 12.2142 54.0734 14.1542 53.5534 15.9542L50.5534 25.6142H60.5134Z" fill="white"/>
</svg>
