<svg width="77" height="42" viewBox="0 0 77 42" fill="none" xmlns="http://www.w3.org/2000/svg">
<path d="M12.18 26.6C12.26 28 12.56 29.26 13.08 30.38C13.64 31.46 14.46 32.32 15.54 32.96C16.62 33.6 17.94 33.92 19.5 33.92C20.54 33.92 21.5 33.78 22.38 33.5C23.26 33.18 23.96 32.72 24.48 32.12C25.04 31.52 25.32 30.78 25.32 29.9C25.32 28.94 25.04 28.16 24.48 27.56C23.92 26.96 23.26 26.52 22.5 26.24C21.74 25.96 20.8 25.68 19.68 25.4L12.84 23.48C9.28 22.56 6.62 21.18 4.86 19.34C3.14 17.46 2.28 15.1 2.28 12.26C2.28 9.78 2.96 7.66 4.32 5.9C5.68 4.1 7.56 2.74 9.96 1.82C12.36 0.859997 15.12 0.379997 18.24 0.379997C21.32 0.379997 24.12 0.859997 26.64 1.82C29.16 2.74 31.24 4.22 32.88 6.26C34.56 8.26 35.56 10.78 35.88 13.82H24.9C24.82 12.62 24.48 11.58 23.88 10.7C23.28 9.78 22.5 9.1 21.54 8.66C20.58 8.22 19.5 8 18.3 8C16.86 8 15.6 8.34 14.52 9.02C13.44 9.66 12.9 10.54 12.9 11.66C12.9 12.74 13.28 13.6 14.04 14.24C14.84 14.88 16.02 15.38 17.58 15.74L25.02 17.66C28.46 18.54 31.14 19.88 33.06 21.68C35.02 23.44 36 25.9 36 29.06C36 31.66 35.3 33.92 33.9 35.84C32.54 37.72 30.58 39.18 28.02 40.22C25.5 41.22 22.58 41.72 19.26 41.72C15.98 41.72 13.02 41.22 10.38 40.22C7.78 39.18 5.62 37.54 3.9 35.3C2.22 33.02 1.22 30.12 0.9 26.6H12.18ZM62.5534 32.54H48.5134L45.7534 41H35.0734L48.5734 1.1H62.3134L76.1134 41H65.3734L62.5534 32.54ZM60.5134 25.04L57.3934 15.38C56.8334 13.54 56.3534 11.42 55.9534 9.02H54.9334L54.8734 9.56C54.5134 11.64 54.0734 13.58 53.5534 15.38L50.5534 25.04H60.5134Z" fill="black"/>
</svg>
