<svg width="72" height="83" viewBox="0 0 72 83" fill="none" xmlns="http://www.w3.org/2000/svg">
<path fill-rule="evenodd" clip-rule="evenodd" d="M60.8164 33.1205C60.1131 33.0414 59.4544 33.3624 56.7764 35.0889C55.0167 36.2236 51.2879 38.5635 48.4903 40.2887C43.0035 43.6723 42.9414 43.733 43.4889 45.1957C44.0152 46.6018 44.3325 46.4846 51.3195 42.3049C59.2076 37.586 61.5492 35.9932 61.8568 35.1372C62.2525 34.0361 61.8395 33.2356 60.8164 33.1205ZM46.3404 16.5478C45.9959 16.6195 44.2582 19.2132 42.4052 22.4221C41.6198 23.782 40.3395 25.8846 39.5601 27.0947C38.0979 29.3647 37.824 30.3935 38.5313 30.9563C38.7601 31.1383 39.1189 31.09 39.4479 30.8327C40.3849 30.1003 45.6614 20.7683 46.6901 18.0242C47.0544 17.0529 46.9068 16.4298 46.3404 16.5478ZM67.3297 47.6595C67.0149 47.6776 64.7701 47.9838 62.3408 48.3399C51.4227 49.9403 48.444 51.6181 58.7349 50.3708C60.7676 50.1243 63.6028 49.7871 65.0358 49.6214C66.4689 49.4553 67.7618 49.2947 67.9093 49.2639C68.2034 49.2027 68.3185 48.1112 68.0622 47.8132C67.974 47.7106 67.6444 47.6413 67.3297 47.6595ZM32.6372 7.6986C31.8653 7.66535 31.0425 9.80103 28.8913 17.422C28.1221 20.1472 26.9751 24.0186 26.3422 26.0248C25.0534 30.1111 24.9296 30.7641 25.352 31.2553C25.9518 31.9526 26.4496 31.6246 27.1226 30.0888C27.9262 28.2544 31.1726 18.0564 32.142 14.3206C33.1275 10.5228 33.3364 7.72873 32.6372 7.6986ZM15.857 0.695224C15.4596 0.778028 15.0541 16.1194 15.4199 17.2344C15.702 18.0945 16.6826 19.0302 17.1909 18.9244C17.5638 18.8466 17.8602 12.4752 17.679 8.42953C17.5277 5.05146 16.9547 1.54765 16.4592 0.971554C16.298 0.784095 16.027 0.659673 15.857 0.695224ZM70.0077 63.9774C68.573 63.4579 63.7185 62.7666 59.8088 62.5244C55.2291 62.2412 52.0798 62.5115 51.4856 63.2389C50.8709 63.9919 51.5307 64.7903 53.0991 65.1917C55.0654 65.6949 69.4447 66.613 70.2682 66.2878C71.6387 65.7468 71.5003 64.5176 70.0077 63.9774ZM67.3334 79.6665C61.9642 76.0617 50.773 70.3784 49.8337 70.7796C49.3406 70.9903 49.4265 72.0128 49.9927 72.6712C50.8034 73.6138 63.0887 80.1801 67.5625 82.0621C68.7716 82.5706 69.7314 82.8131 69.895 82.6511C70.3122 82.238 69.1544 80.8893 67.3334 79.6665ZM15.1736 22.6893C14.8921 22.748 14.7442 23.6143 14.7481 25.1799C14.7512 26.4364 15.4629 28.0281 16.0324 28.0527C16.6647 28.0799 16.7841 27.2841 16.4285 25.4116C16.0989 23.6746 15.6034 22.5998 15.1736 22.6893ZM1.41074 11.4254C0.29702 11.0581 0.444952 11.629 2.64372 16.1856C3.4702 17.8977 4.94299 21.1599 5.91702 23.4344C7.74201 27.6964 8.58385 29.0742 9.38057 29.1028C10.1372 29.1298 9.8746 28.2146 7.55798 22.7503C4.06783 14.5175 2.60252 11.8184 1.41074 11.4254Z" fill="#7FD8BE"/>
</svg>
