<svg width="94" height="94" viewBox="0 0 94 94" fill="none" xmlns="http://www.w3.org/2000/svg">
<path fill-rule="evenodd" clip-rule="evenodd" d="M35.3717 15.931C35.3295 16.8274 35.7564 17.6402 37.9898 20.9161C39.4577 23.0685 42.4918 27.634 44.7323 31.0613C49.1267 37.7834 49.2029 37.8579 50.8901 37.065C52.512 36.3028 52.3504 35.9088 46.907 27.3402C40.7613 17.6665 38.7102 14.8078 37.6771 14.4761C36.3483 14.0495 35.4332 14.627 35.3717 15.931ZM16.8576 35.3952C16.9673 35.8268 20.1563 37.8526 24.0798 39.9826C25.7426 40.8853 28.3183 42.3648 29.8038 43.2702C32.5905 44.9687 33.8252 45.246 34.4382 44.3117C34.6364 44.0094 34.5533 43.5582 34.2256 43.1589C33.2926 42.0214 21.8903 35.9693 18.5754 34.852C17.402 34.4565 16.677 34.6857 16.8576 35.3952ZM52.0641 6.693C52.1083 7.09064 52.6333 9.91389 53.2305 12.9676C55.9147 26.6916 58.1124 30.3516 55.8908 17.3983C55.4519 14.8396 54.8473 11.2705 54.5474 9.46618C54.2471 7.66189 53.9634 6.03468 53.9163 5.84998C53.8226 5.48147 52.5255 5.40973 52.1923 5.75461C52.0776 5.87332 52.0197 6.29558 52.0641 6.693ZM7.40651 53.3566C7.42342 54.3368 10.0049 55.2343 19.1596 57.4429C22.4333 58.2326 27.0877 59.4233 29.5026 60.0891C34.4211 61.4447 35.2011 61.5573 35.7503 60.9888C36.53 60.1817 36.1064 59.5732 34.2442 58.8248C32.0198 57.931 19.7427 54.5096 15.2613 53.5349C10.7053 52.5438 7.3912 52.4686 7.40651 53.3566ZM0.358703 75.0911C0.485387 75.5889 18.6287 75.0621 19.9185 74.5232C20.9135 74.1074 21.9469 72.8016 21.785 72.1648C21.6661 71.6976 14.1217 71.7542 9.35808 72.2581C5.38057 72.6789 1.28528 73.6426 0.641139 74.3093C0.431537 74.5263 0.30435 74.878 0.358703 75.0911ZM71.1359 2.19352C70.627 4.04639 70.164 10.2436 70.1626 15.2135C70.1614 21.0349 70.7098 25.0066 71.6119 25.71C72.5457 26.4378 73.4403 25.5477 73.8001 23.5334C74.2511 21.008 74.2888 2.72804 73.8449 1.70675C73.1063 0.00708083 71.6651 0.265875 71.1359 2.19352ZM89.8549 4.51764C85.9894 11.5645 80.0934 26.1286 80.6354 27.2914C80.9202 27.9019 82.1211 27.7237 82.8573 26.9617C83.9113 25.8707 90.7701 9.86058 92.6667 4.06485C93.179 2.49858 93.3955 1.26614 93.1924 1.06987C92.6743 0.569313 91.1661 2.12765 89.8549 4.51764ZM26.3771 74.4652C26.4669 74.8179 27.5005 74.9464 29.3488 74.8354C30.8321 74.7462 32.6596 73.7367 32.6472 73.0134C32.6333 72.2105 31.685 72.1132 29.5 72.6907C27.4731 73.2261 26.2402 73.9268 26.3771 74.4652ZM14.0793 92.6659C13.7267 94.1018 14.3899 93.8756 19.61 90.7809C21.5713 89.6177 25.3158 87.5305 27.9305 86.1422C32.8299 83.541 34.3954 82.381 34.3711 81.3697C34.348 80.4092 33.2865 80.804 27.0034 84.1096C17.5367 89.0898 14.4566 91.1293 14.0793 92.6659Z" fill="#7FD8BE"/>
</svg>
