<svg width="38" height="33" viewBox="0 0 38 33" fill="none" xmlns="http://www.w3.org/2000/svg">
<path fill-rule="evenodd" clip-rule="evenodd" d="M16.0654 4.27513C16.0162 4.60343 16.1427 4.91861 16.8413 6.20824C17.3005 7.05562 18.2453 8.84996 18.9409 10.1956C20.3052 12.8348 20.3304 12.8651 20.9811 12.6368C21.6067 12.4173 21.5621 12.2662 19.8813 8.90799C17.9836 5.11664 17.3363 3.98741 16.9686 3.82646C16.4956 3.61945 16.1371 3.79755 16.0654 4.27513ZM8.51944 10.7416C8.54358 10.9045 9.64094 11.77 11.0047 12.7016C11.5827 13.0964 12.4749 13.7378 12.9875 14.1269C13.9492 14.8568 14.3931 15.0054 14.6539 14.6846C14.7382 14.5808 14.7246 14.4116 14.619 14.2523C14.3185 13.7986 10.3499 11.1422 9.17205 10.6063C8.75513 10.4166 8.4797 10.4737 8.51944 10.7416ZM22.5562 1.50355C22.5575 1.65156 22.6444 2.71031 22.7493 3.85659C23.2206 9.00828 23.8917 10.4379 23.5616 5.58729C23.4963 4.62913 23.4082 3.29288 23.3657 2.61758C23.3231 1.94227 23.2799 1.33275 23.2695 1.26301C23.2489 1.12386 22.7742 1.04865 22.6386 1.16303C22.592 1.2024 22.5548 1.35562 22.5562 1.50355ZM4.36537 16.996C4.3347 17.3574 5.25096 17.7848 8.53692 18.9421C9.712 19.3559 11.3801 19.9693 12.2437 20.3052C14.0028 20.9892 14.2856 21.06 14.5092 20.8714C14.8265 20.6037 14.6935 20.3638 14.0363 20.0183C13.2513 19.6057 8.8619 17.8846 7.24934 17.3572C5.60998 16.821 4.39315 16.6686 4.36537 16.996ZM0.953749 24.7294C0.981637 24.9174 7.6785 25.4063 8.17344 25.2565C8.55529 25.1409 8.98472 24.6993 8.9491 24.4588C8.92292 24.2824 6.14434 24.0193 4.37228 24.0255C2.89266 24.0307 1.34926 24.2312 1.08711 24.4524C1.00181 24.5243 0.941764 24.649 0.953749 24.7294ZM29.7442 0.565372C29.4872 1.22811 29.0836 3.49137 28.896 5.3203C28.6766 7.46263 28.7289 8.94492 29.0344 9.23774C29.3507 9.54071 29.7134 9.24682 29.9216 8.51906C30.1827 7.60665 30.8844 0.880732 30.7595 0.488179C30.5516 -0.165124 30.0115 -0.124119 29.7442 0.565372ZM36.5456 2.12512C34.8579 4.57302 32.14 9.71098 32.2957 10.1593C32.3775 10.3947 32.8262 10.3743 33.1258 10.1216C33.5548 9.75973 36.6814 4.12585 37.5975 2.06429C37.845 1.50716 37.971 1.06175 37.9037 0.981874C37.7318 0.778163 37.1181 1.2949 36.5456 2.12512ZM10.5525 25.4782C10.5723 25.6114 10.9478 25.6976 11.6322 25.7263C12.1814 25.7493 12.892 25.4465 12.9146 25.1799C12.9398 24.8839 12.5944 24.8124 11.7686 24.9427C11.0025 25.0635 10.5224 25.2749 10.5525 25.4782ZM5.34177 31.7136C5.15797 32.2288 5.41058 32.1705 7.44811 31.228C8.21369 30.8737 9.67027 30.2465 10.6848 29.834C12.5857 29.0611 13.2055 28.6931 13.2346 28.32C13.2623 27.9657 12.8567 28.071 10.4201 29.0511C6.74876 30.5276 5.53846 31.1623 5.34177 31.7136Z" fill="#7FD8BE"/>
</svg>
