<svg width="28" height="27" viewBox="0 0 28 27" fill="none" xmlns="http://www.w3.org/2000/svg">
<path d="M8.4 0.241211H19.6C23.8667 0.241211 27.3333 3.70788 27.3333 7.97454V19.1745C27.3333 21.2256 26.5186 23.1926 25.0683 24.6428C23.618 26.0931 21.651 26.9079 19.6 26.9079H8.4C4.13333 26.9079 0.666668 23.4412 0.666668 19.1745V7.97454C0.666668 5.92354 1.48143 3.95653 2.93171 2.50625C4.38199 1.05597 6.34899 0.241211 8.4 0.241211ZM8.13333 2.90788C6.86029 2.90788 5.6394 3.41359 4.73922 4.31377C3.83905 5.21394 3.33333 6.43484 3.33333 7.70788V19.4412C3.33333 22.0945 5.48 24.2412 8.13333 24.2412H19.8667C21.1397 24.2412 22.3606 23.7355 23.2608 22.8353C24.161 21.9351 24.6667 20.7142 24.6667 19.4412V7.70788C24.6667 5.05454 22.52 2.90788 19.8667 2.90788H8.13333ZM21 4.90788C21.442 4.90788 21.866 5.08347 22.1785 5.39603C22.4911 5.70859 22.6667 6.13252 22.6667 6.57454C22.6667 7.01657 22.4911 7.44049 22.1785 7.75306C21.866 8.06562 21.442 8.24121 21 8.24121C20.558 8.24121 20.134 8.06562 19.8215 7.75306C19.5089 7.44049 19.3333 7.01657 19.3333 6.57454C19.3333 6.13252 19.5089 5.70859 19.8215 5.39603C20.134 5.08347 20.558 4.90788 21 4.90788ZM14 6.90788C15.7681 6.90788 17.4638 7.61026 18.714 8.8605C19.9643 10.1107 20.6667 11.8064 20.6667 13.5745C20.6667 15.3427 19.9643 17.0383 18.714 18.2886C17.4638 19.5388 15.7681 20.2412 14 20.2412C12.2319 20.2412 10.5362 19.5388 9.28596 18.2886C8.03571 17.0383 7.33333 15.3427 7.33333 13.5745C7.33333 11.8064 8.03571 10.1107 9.28596 8.8605C10.5362 7.61026 12.2319 6.90788 14 6.90788ZM14 9.57454C12.9391 9.57454 11.9217 9.99597 11.1716 10.7461C10.4214 11.4963 10 12.5137 10 13.5745C10 14.6354 10.4214 15.6528 11.1716 16.403C11.9217 17.1531 12.9391 17.5745 14 17.5745C15.0609 17.5745 16.0783 17.1531 16.8284 16.403C17.5786 15.6528 18 14.6354 18 13.5745C18 12.5137 17.5786 11.4963 16.8284 10.7461C16.0783 9.99597 15.0609 9.57454 14 9.57454Z" fill="white"/>
</svg>
