<svg width="24" height="25" viewBox="0 0 24 25" fill="none" xmlns="http://www.w3.org/2000/svg">
<path d="M21.3333 0.574219C22.0406 0.574219 22.7189 0.85517 23.219 1.35527C23.719 1.85536 24 2.53364 24 3.24089V21.9076C24 22.6148 23.719 23.2931 23.219 23.7932C22.7189 24.2933 22.0406 24.5742 21.3333 24.5742H2.66667C1.95942 24.5742 1.28115 24.2933 0.781048 23.7932C0.280951 23.2931 0 22.6148 0 21.9076V3.24089C0 2.53364 0.280951 1.85536 0.781048 1.35527C1.28115 0.85517 1.95942 0.574219 2.66667 0.574219H21.3333ZM20.6667 21.2409V14.1742C20.6667 13.0214 20.2087 11.9158 19.3936 11.1007C18.5784 10.2855 17.4728 9.82755 16.32 9.82755C15.1867 9.82755 13.8667 10.5209 13.2267 11.5609V10.0809H9.50667V21.2409H13.2267V14.6676C13.2267 13.6409 14.0533 12.8009 15.08 12.8009C15.5751 12.8009 16.0499 12.9976 16.3999 13.3476C16.75 13.6977 16.9467 14.1725 16.9467 14.6676V21.2409H20.6667ZM5.17333 7.98755C5.76742 7.98755 6.33717 7.75155 6.75725 7.33147C7.17733 6.91139 7.41333 6.34164 7.41333 5.74755C7.41333 4.50755 6.41333 3.49422 5.17333 3.49422C4.57571 3.49422 4.00257 3.73162 3.57999 4.1542C3.1574 4.57679 2.92 5.14993 2.92 5.74755C2.92 6.98755 3.93333 7.98755 5.17333 7.98755ZM7.02667 21.2409V10.0809H3.33333V21.2409H7.02667Z" fill="white"/>
</svg>
