<svg width="44" height="276" viewBox="0 0 44 276" fill="none" xmlns="http://www.w3.org/2000/svg">
<g style="mix-blend-mode:multiply" opacity="0.25">
<path d="M2.49054 2.32679C3.86603 2.32679 4.98108 1.21173 4.98108 -0.163755C4.98108 -1.53924 3.86603 -2.6543 2.49054 -2.6543C1.11505 -2.6543 0 -1.53924 0 -0.163755C0 1.21173 1.11505 2.32679 2.49054 2.32679Z" fill="#C2B7ED"/>
<path d="M2.49054 10.6295C3.86603 10.6295 4.98108 9.51447 4.98108 8.13898C4.98108 6.76349 3.86603 5.64844 2.49054 5.64844C1.11505 5.64844 0 6.76349 0 8.13898C0 9.51447 1.11505 10.6295 2.49054 10.6295Z" fill="#C2B7ED"/>
<path d="M2.49054 18.1002C3.86603 18.1002 4.98108 16.9852 4.98108 15.6097C4.98108 14.2342 3.86603 13.1191 2.49054 13.1191C1.11505 13.1191 0 14.2342 0 15.6097C0 16.9852 1.11505 18.1002 2.49054 18.1002Z" fill="#C2B7ED"/>
<path d="M2.49054 25.5739C3.86603 25.5739 4.98108 24.4588 4.98108 23.0833C4.98108 21.7078 3.86603 20.5928 2.49054 20.5928C1.11505 20.5928 0 21.7078 0 23.0833C0 24.4588 1.11505 25.5739 2.49054 25.5739Z" fill="#C2B7ED"/>
<path d="M2.49054 33.8746C3.86603 33.8746 4.98108 32.7596 4.98108 31.3841C4.98108 30.0086 3.86603 28.8936 2.49054 28.8936C1.11505 28.8936 0 30.0086 0 31.3841C0 32.7596 1.11505 33.8746 2.49054 33.8746Z" fill="#C2B7ED"/>
<path d="M2.49054 41.3453C3.86603 41.3453 4.98108 40.2303 4.98108 38.8548C4.98108 37.4793 3.86603 36.3643 2.49054 36.3643C1.11505 36.3643 0 37.4793 0 38.8548C0 40.2303 1.11505 41.3453 2.49054 41.3453Z" fill="#C2B7ED"/>
<path d="M10.7878 41.3453C12.1633 41.3453 13.2783 40.2303 13.2783 38.8548C13.2783 37.4793 12.1633 36.3643 10.7878 36.3643C9.41229 36.3643 8.29724 37.4793 8.29724 38.8548C8.29724 40.2303 9.41229 41.3453 10.7878 41.3453Z" fill="#C2B7ED"/>
<path d="M2.49054 49.6481C3.86603 49.6481 4.98108 48.533 4.98108 47.1575C4.98108 45.782 3.86603 44.667 2.49054 44.667C1.11505 44.667 0 45.782 0 47.1575C0 48.533 1.11505 49.6481 2.49054 49.6481Z" fill="#C2B7ED"/>
<path d="M10.7878 49.6481C12.1632 49.6481 13.2783 48.533 13.2783 47.1575C13.2783 45.782 12.1632 44.667 10.7878 44.667C9.41226 44.667 8.29721 45.782 8.29721 47.1575C8.29721 48.533 9.41226 49.6481 10.7878 49.6481Z" fill="#C2B7ED"/>
<path d="M2.49054 57.1198C3.86603 57.1198 4.98108 56.0047 4.98108 54.6292C4.98108 53.2537 3.86603 52.1387 2.49054 52.1387C1.11505 52.1387 0 53.2537 0 54.6292C0 56.0047 1.11505 57.1198 2.49054 57.1198Z" fill="#C2B7ED"/>
<path d="M10.7878 57.1198C12.1633 57.1198 13.2783 56.0047 13.2783 54.6292C13.2783 53.2537 12.1633 52.1387 10.7878 52.1387C9.41229 52.1387 8.29724 53.2537 8.29724 54.6292C8.29724 56.0047 9.41229 57.1198 10.7878 57.1198Z" fill="#C2B7ED"/>
<path d="M2.49054 64.5905C3.86603 64.5905 4.98108 63.4754 4.98108 62.0999C4.98108 60.7244 3.86603 59.6094 2.49054 59.6094C1.11505 59.6094 0 60.7244 0 62.0999C0 63.4754 1.11505 64.5905 2.49054 64.5905Z" fill="#C2B7ED"/>
<path d="M2.49054 72.8932C3.86603 72.8932 4.98108 71.7781 4.98108 70.4027C4.98108 69.0272 3.86603 67.9121 2.49054 67.9121C1.11505 67.9121 0 69.0272 0 70.4027C0 71.7781 1.11505 72.8932 2.49054 72.8932Z" fill="#C2B7ED"/>
<path d="M18.262 80.3639C19.6375 80.3639 20.7525 79.2488 20.7525 77.8734C20.7525 76.4979 19.6375 75.3828 18.262 75.3828C16.8865 75.3828 15.7714 76.4979 15.7714 77.8734C15.7714 79.2488 16.8865 80.3639 18.262 80.3639Z" fill="#C2B7ED"/>
<path d="M2.49054 80.3639C3.86603 80.3639 4.98108 79.2488 4.98108 77.8734C4.98108 76.4979 3.86603 75.3828 2.49054 75.3828C1.11505 75.3828 0 76.4979 0 77.8734C0 79.2488 1.11505 80.3639 2.49054 80.3639Z" fill="#C2B7ED"/>
<path d="M2.49054 88.6657C3.86603 88.6657 4.98108 87.5506 4.98108 86.1751C4.98108 84.7996 3.86603 83.6846 2.49054 83.6846C1.11505 83.6846 0 84.7996 0 86.1751C0 87.5506 1.11505 88.6657 2.49054 88.6657Z" fill="#C2B7ED"/>
<path d="M10.7878 88.6657C12.1633 88.6657 13.2783 87.5506 13.2783 86.1751C13.2783 84.7996 12.1633 83.6846 10.7878 83.6846C9.41229 83.6846 8.29724 84.7996 8.29724 86.1751C8.29724 87.5506 9.41229 88.6657 10.7878 88.6657Z" fill="#C2B7ED"/>
<path d="M18.262 88.6657C19.6375 88.6657 20.7525 87.5506 20.7525 86.1751C20.7525 84.7996 19.6375 83.6846 18.262 83.6846C16.8865 83.6846 15.7714 84.7996 15.7714 86.1751C15.7714 87.5506 16.8865 88.6657 18.262 88.6657Z" fill="#C2B7ED"/>
<path d="M26.5653 88.6657C27.9408 88.6657 29.0558 87.5506 29.0558 86.1751C29.0558 84.7996 27.9408 83.6846 26.5653 83.6846C25.1898 83.6846 24.0748 84.7996 24.0748 86.1751C24.0748 87.5506 25.1898 88.6657 26.5653 88.6657Z" fill="#C2B7ED"/>
<path d="M26.5653 96.1383C27.9408 96.1383 29.0558 95.0232 29.0558 93.6478C29.0558 92.2723 27.9408 91.1572 26.5653 91.1572C25.1898 91.1572 24.0748 92.2723 24.0748 93.6478C24.0748 95.0232 25.1898 96.1383 26.5653 96.1383Z" fill="#C2B7ED"/>
<path d="M2.49054 96.1383C3.86603 96.1383 4.98108 95.0232 4.98108 93.6478C4.98108 92.2723 3.86603 91.1572 2.49054 91.1572C1.11505 91.1572 0 92.2723 0 93.6478C0 95.0232 1.11505 96.1383 2.49054 96.1383Z" fill="#C2B7ED"/>
<path d="M10.7878 96.1383C12.1633 96.1383 13.2783 95.0232 13.2783 93.6478C13.2783 92.2723 12.1633 91.1572 10.7878 91.1572C9.41229 91.1572 8.29724 92.2723 8.29724 93.6478C8.29724 95.0232 9.41229 96.1383 10.7878 96.1383Z" fill="#C2B7ED"/>
<path d="M18.262 96.1383C19.6375 96.1383 20.7525 95.0232 20.7525 93.6478C20.7525 92.2723 19.6375 91.1572 18.262 91.1572C16.8865 91.1572 15.7714 92.2723 15.7714 93.6478C15.7714 95.0232 16.8865 96.1383 18.262 96.1383Z" fill="#C2B7ED"/>
<path d="M2.49054 103.609C3.86603 103.609 4.98108 102.494 4.98108 101.118C4.98108 99.743 3.86603 98.6279 2.49054 98.6279C1.11505 98.6279 0 99.743 0 101.118C0 102.494 1.11505 103.609 2.49054 103.609Z" fill="#C2B7ED"/>
<path d="M10.7878 103.609C12.1632 103.609 13.2783 102.494 13.2783 101.118C13.2783 99.743 12.1632 98.6279 10.7878 98.6279C9.41226 98.6279 8.29721 99.743 8.29721 101.118C8.29721 102.494 9.41226 103.609 10.7878 103.609Z" fill="#C2B7ED"/>
<path d="M18.262 103.609C19.6375 103.609 20.7525 102.494 20.7525 101.118C20.7525 99.743 19.6375 98.6279 18.262 98.6279C16.8865 98.6279 15.7714 99.743 15.7714 101.118C15.7714 102.494 16.8865 103.609 18.262 103.609Z" fill="#C2B7ED"/>
<path d="M2.49054 111.911C3.86603 111.911 4.98108 110.796 4.98108 109.42C4.98108 108.045 3.86603 106.93 2.49054 106.93C1.11505 106.93 0 108.045 0 109.42C0 110.796 1.11505 111.911 2.49054 111.911Z" fill="#C2B7ED"/>
<path d="M10.7878 111.911C12.1633 111.911 13.2783 110.796 13.2783 109.42C13.2783 108.045 12.1633 106.93 10.7878 106.93C9.41229 106.93 8.29724 108.045 8.29724 109.42C8.29724 110.796 9.41229 111.911 10.7878 111.911Z" fill="#C2B7ED"/>
<path d="M18.262 111.911C19.6375 111.911 20.7525 110.796 20.7525 109.42C20.7525 108.045 19.6375 106.93 18.262 106.93C16.8865 106.93 15.7714 108.045 15.7714 109.42C15.7714 110.796 16.8865 111.911 18.262 111.911Z" fill="#C2B7ED"/>
<path d="M26.5653 111.911C27.9408 111.911 29.0558 110.796 29.0558 109.42C29.0558 108.045 27.9408 106.93 26.5653 106.93C25.1898 106.93 24.0748 108.045 24.0748 109.42C24.0748 110.796 25.1898 111.911 26.5653 111.911Z" fill="#C2B7ED"/>
<path d="M2.49054 119.383C3.86603 119.383 4.98108 118.268 4.98108 116.893C4.98108 115.517 3.86603 114.402 2.49054 114.402C1.11505 114.402 0 115.517 0 116.893C0 118.268 1.11505 119.383 2.49054 119.383Z" fill="#C2B7ED"/>
<path d="M10.7878 119.383C12.1633 119.383 13.2783 118.268 13.2783 116.893C13.2783 115.517 12.1633 114.402 10.7878 114.402C9.41229 114.402 8.29724 115.517 8.29724 116.893C8.29724 118.268 9.41229 119.383 10.7878 119.383Z" fill="#C2B7ED"/>
<path d="M18.262 119.383C19.6375 119.383 20.7525 118.268 20.7525 116.893C20.7525 115.517 19.6375 114.402 18.262 114.402C16.8865 114.402 15.7714 115.517 15.7714 116.893C15.7714 118.268 16.8865 119.383 18.262 119.383Z" fill="#C2B7ED"/>
<path d="M26.5653 119.383C27.9408 119.383 29.0558 118.268 29.0558 116.893C29.0558 115.517 27.9408 114.402 26.5653 114.402C25.1898 114.402 24.0748 115.517 24.0748 116.893C24.0748 118.268 25.1898 119.383 26.5653 119.383Z" fill="#C2B7ED"/>
<path d="M2.49054 126.856C3.86603 126.856 4.98108 125.741 4.98108 124.366C4.98108 122.99 3.86603 121.875 2.49054 121.875C1.11505 121.875 0 122.99 0 124.366C0 125.741 1.11505 126.856 2.49054 126.856Z" fill="#C2B7ED"/>
<path d="M10.7939 126.856C12.1694 126.856 13.2844 125.741 13.2844 124.366C13.2844 122.99 12.1694 121.875 10.7939 121.875C9.4184 121.875 8.30334 122.99 8.30334 124.366C8.30334 125.741 9.4184 126.856 10.7939 126.856Z" fill="#C2B7ED"/>
<path d="M18.262 126.856C19.6375 126.856 20.7525 125.741 20.7525 124.366C20.7525 122.99 19.6375 121.875 18.262 121.875C16.8865 121.875 15.7714 122.99 15.7714 124.366C15.7714 125.741 16.8865 126.856 18.262 126.856Z" fill="#C2B7ED"/>
<path d="M26.5653 126.856C27.9408 126.856 29.0558 125.741 29.0558 124.366C29.0558 122.99 27.9408 121.875 26.5653 121.875C25.1898 121.875 24.0748 122.99 24.0748 124.366C24.0748 125.741 25.1898 126.856 26.5653 126.856Z" fill="#C2B7ED"/>
<path d="M34.0343 126.856C35.4098 126.856 36.5248 125.741 36.5248 124.366C36.5248 122.99 35.4098 121.875 34.0343 121.875C32.6588 121.875 31.5438 122.99 31.5438 124.366C31.5438 125.741 32.6588 126.856 34.0343 126.856Z" fill="#C2B7ED"/>
<path d="M2.49054 135.157C3.86603 135.157 4.98108 134.042 4.98108 132.666C4.98108 131.291 3.86603 130.176 2.49054 130.176C1.11505 130.176 0 131.291 0 132.666C0 134.042 1.11505 135.157 2.49054 135.157Z" fill="#C2B7ED"/>
<path d="M10.7878 135.157C12.1633 135.157 13.2783 134.042 13.2783 132.666C13.2783 131.291 12.1633 130.176 10.7878 130.176C9.41229 130.176 8.29724 131.291 8.29724 132.666C8.29724 134.042 9.41229 135.157 10.7878 135.157Z" fill="#C2B7ED"/>
<path d="M18.262 135.157C19.6375 135.157 20.7525 134.042 20.7525 132.666C20.7525 131.291 19.6375 130.176 18.262 130.176C16.8865 130.176 15.7714 131.291 15.7714 132.666C15.7714 134.042 16.8865 135.157 18.262 135.157Z" fill="#C2B7ED"/>
<path d="M26.5653 135.157C27.9408 135.157 29.0558 134.042 29.0558 132.666C29.0558 131.291 27.9408 130.176 26.5653 130.176C25.1898 130.176 24.0748 131.291 24.0748 132.666C24.0748 134.042 25.1898 135.157 26.5653 135.157Z" fill="#C2B7ED"/>
<path d="M34.0343 135.157C35.4098 135.157 36.5248 134.042 36.5248 132.666C36.5248 131.291 35.4098 130.176 34.0343 130.176C32.6588 130.176 31.5438 131.291 31.5438 132.666C31.5438 134.042 32.6588 135.157 34.0343 135.157Z" fill="#C2B7ED"/>
<path d="M2.49054 142.627C3.86603 142.627 4.98108 141.512 4.98108 140.136C4.98108 138.761 3.86603 137.646 2.49054 137.646C1.11505 137.646 0 138.761 0 140.136C0 141.512 1.11505 142.627 2.49054 142.627Z" fill="#C2B7ED"/>
<path d="M10.7878 142.627C12.1632 142.627 13.2783 141.512 13.2783 140.136C13.2783 138.761 12.1632 137.646 10.7878 137.646C9.41226 137.646 8.29721 138.761 8.29721 140.136C8.29721 141.512 9.41226 142.627 10.7878 142.627Z" fill="#C2B7ED"/>
<path d="M18.262 142.627C19.6375 142.627 20.7525 141.512 20.7525 140.136C20.7525 138.761 19.6375 137.646 18.262 137.646C16.8865 137.646 15.7714 138.761 15.7714 140.136C15.7714 141.512 16.8865 142.627 18.262 142.627Z" fill="#C2B7ED"/>
<path d="M26.5653 142.627C27.9408 142.627 29.0559 141.512 29.0559 140.136C29.0559 138.761 27.9408 137.646 26.5653 137.646C25.1899 137.646 24.0748 138.761 24.0748 140.136C24.0748 141.512 25.1899 142.627 26.5653 142.627Z" fill="#C2B7ED"/>
<path d="M34.0343 142.627C35.4098 142.627 36.5249 141.512 36.5249 140.136C36.5249 138.761 35.4098 137.646 34.0343 137.646C32.6588 137.646 31.5438 138.761 31.5438 140.136C31.5438 141.512 32.6588 142.627 34.0343 142.627Z" fill="#C2B7ED"/>
<path d="M2.49054 150.93C3.86603 150.93 4.98108 149.815 4.98108 148.44C4.98108 147.064 3.86603 145.949 2.49054 145.949C1.11505 145.949 0 147.064 0 148.44C0 149.815 1.11505 150.93 2.49054 150.93Z" fill="#C2B7ED"/>
<path d="M10.7878 150.93C12.1633 150.93 13.2783 149.815 13.2783 148.44C13.2783 147.064 12.1633 145.949 10.7878 145.949C9.41229 145.949 8.29724 147.064 8.29724 148.44C8.29724 149.815 9.41229 150.93 10.7878 150.93Z" fill="#C2B7ED"/>
<path d="M18.262 150.93C19.6375 150.93 20.7525 149.815 20.7525 148.44C20.7525 147.064 19.6375 145.949 18.262 145.949C16.8865 145.949 15.7714 147.064 15.7714 148.44C15.7714 149.815 16.8865 150.93 18.262 150.93Z" fill="#C2B7ED"/>
<path d="M26.5653 150.93C27.9408 150.93 29.0558 149.815 29.0558 148.44C29.0558 147.064 27.9408 145.949 26.5653 145.949C25.1898 145.949 24.0748 147.064 24.0748 148.44C24.0748 149.815 25.1898 150.93 26.5653 150.93Z" fill="#C2B7ED"/>
<path d="M34.0343 150.93C35.4098 150.93 36.5248 149.815 36.5248 148.44C36.5248 147.064 35.4098 145.949 34.0343 145.949C32.6588 145.949 31.5438 147.064 31.5438 148.44C31.5438 149.815 32.6588 150.93 34.0343 150.93Z" fill="#C2B7ED"/>
<path d="M2.49054 158.402C3.86603 158.402 4.98108 157.287 4.98108 155.911C4.98108 154.536 3.86603 153.421 2.49054 153.421C1.11505 153.421 0 154.536 0 155.911C0 157.287 1.11505 158.402 2.49054 158.402Z" fill="#C2B7ED"/>
<path d="M10.7878 158.402C12.1633 158.402 13.2783 157.287 13.2783 155.911C13.2783 154.536 12.1633 153.421 10.7878 153.421C9.41229 153.421 8.29724 154.536 8.29724 155.911C8.29724 157.287 9.41229 158.402 10.7878 158.402Z" fill="#C2B7ED"/>
<path d="M18.262 158.402C19.6375 158.402 20.7525 157.287 20.7525 155.911C20.7525 154.536 19.6375 153.421 18.262 153.421C16.8865 153.421 15.7714 154.536 15.7714 155.911C15.7714 157.287 16.8865 158.402 18.262 158.402Z" fill="#C2B7ED"/>
<path d="M26.5653 158.402C27.9408 158.402 29.0558 157.287 29.0558 155.911C29.0558 154.536 27.9408 153.421 26.5653 153.421C25.1898 153.421 24.0748 154.536 24.0748 155.911C24.0748 157.287 25.1898 158.402 26.5653 158.402Z" fill="#C2B7ED"/>
<path d="M34.0343 158.402C35.4098 158.402 36.5248 157.287 36.5248 155.911C36.5248 154.536 35.4098 153.421 34.0343 153.421C32.6588 153.421 31.5438 154.536 31.5438 155.911C31.5438 157.287 32.6588 158.402 34.0343 158.402Z" fill="#C2B7ED"/>
<path d="M41.5095 158.402C42.885 158.402 44 157.287 44 155.911C44 154.536 42.885 153.421 41.5095 153.421C40.134 153.421 39.0189 154.536 39.0189 155.911C39.0189 157.287 40.134 158.402 41.5095 158.402Z" fill="#C2B7ED"/>
<path d="M2.49054 165.873C3.86603 165.873 4.98108 164.758 4.98108 163.382C4.98108 162.007 3.86603 160.892 2.49054 160.892C1.11505 160.892 0 162.007 0 163.382C0 164.758 1.11505 165.873 2.49054 165.873Z" fill="#C2B7ED"/>
<path d="M10.7878 165.873C12.1632 165.873 13.2783 164.758 13.2783 163.382C13.2783 162.007 12.1632 160.892 10.7878 160.892C9.41226 160.892 8.29721 162.007 8.29721 163.382C8.29721 164.758 9.41226 165.873 10.7878 165.873Z" fill="#C2B7ED"/>
<path d="M18.262 165.873C19.6375 165.873 20.7525 164.758 20.7525 163.382C20.7525 162.007 19.6375 160.892 18.262 160.892C16.8865 160.892 15.7714 162.007 15.7714 163.382C15.7714 164.758 16.8865 165.873 18.262 165.873Z" fill="#C2B7ED"/>
<path d="M26.5653 165.873C27.9408 165.873 29.0559 164.758 29.0559 163.382C29.0559 162.007 27.9408 160.892 26.5653 160.892C25.1899 160.892 24.0748 162.007 24.0748 163.382C24.0748 164.758 25.1899 165.873 26.5653 165.873Z" fill="#C2B7ED"/>
<path d="M34.0343 165.873C35.4098 165.873 36.5249 164.758 36.5249 163.382C36.5249 162.007 35.4098 160.892 34.0343 160.892C32.6588 160.892 31.5438 162.007 31.5438 163.382C31.5438 164.758 32.6588 165.873 34.0343 165.873Z" fill="#C2B7ED"/>
<path d="M41.5095 165.873C42.885 165.873 44 164.758 44 163.382C44 162.007 42.885 160.892 41.5095 160.892C40.134 160.892 39.0189 162.007 39.0189 163.382C39.0189 164.758 40.134 165.873 41.5095 165.873Z" fill="#C2B7ED"/>
<path d="M2.49054 174.175C3.86603 174.175 4.98108 173.06 4.98108 171.685C4.98108 170.309 3.86603 169.194 2.49054 169.194C1.11505 169.194 0 170.309 0 171.685C0 173.06 1.11505 174.175 2.49054 174.175Z" fill="#C2B7ED"/>
<path d="M10.7878 174.175C12.1633 174.175 13.2783 173.06 13.2783 171.685C13.2783 170.309 12.1633 169.194 10.7878 169.194C9.41229 169.194 8.29724 170.309 8.29724 171.685C8.29724 173.06 9.41229 174.175 10.7878 174.175Z" fill="#C2B7ED"/>
<path d="M18.262 174.175C19.6375 174.175 20.7525 173.06 20.7525 171.685C20.7525 170.309 19.6375 169.194 18.262 169.194C16.8865 169.194 15.7714 170.309 15.7714 171.685C15.7714 173.06 16.8865 174.175 18.262 174.175Z" fill="#C2B7ED"/>
<path d="M26.5653 174.175C27.9408 174.175 29.0558 173.06 29.0558 171.685C29.0558 170.309 27.9408 169.194 26.5653 169.194C25.1898 169.194 24.0748 170.309 24.0748 171.685C24.0748 173.06 25.1898 174.175 26.5653 174.175Z" fill="#C2B7ED"/>
<path d="M34.0343 174.175C35.4098 174.175 36.5248 173.06 36.5248 171.685C36.5248 170.309 35.4098 169.194 34.0343 169.194C32.6588 169.194 31.5438 170.309 31.5438 171.685C31.5438 173.06 32.6588 174.175 34.0343 174.175Z" fill="#C2B7ED"/>
<path d="M41.5095 174.175C42.885 174.175 44 173.06 44 171.685C44 170.309 42.885 169.194 41.5095 169.194C40.134 169.194 39.0189 170.309 39.0189 171.685C39.0189 173.06 40.134 174.175 41.5095 174.175Z" fill="#C2B7ED"/>
<path d="M2.49054 181.647C3.86603 181.647 4.98108 180.532 4.98108 179.157C4.98108 177.781 3.86603 176.666 2.49054 176.666C1.11505 176.666 0 177.781 0 179.157C0 180.532 1.11505 181.647 2.49054 181.647Z" fill="#C2B7ED"/>
<path d="M10.7878 181.647C12.1633 181.647 13.2783 180.532 13.2783 179.157C13.2783 177.781 12.1633 176.666 10.7878 176.666C9.41229 176.666 8.29724 177.781 8.29724 179.157C8.29724 180.532 9.41229 181.647 10.7878 181.647Z" fill="#C2B7ED"/>
<path d="M18.262 181.647C19.6375 181.647 20.7525 180.532 20.7525 179.157C20.7525 177.781 19.6375 176.666 18.262 176.666C16.8865 176.666 15.7714 177.781 15.7714 179.157C15.7714 180.532 16.8865 181.647 18.262 181.647Z" fill="#C2B7ED"/>
<path d="M26.5653 181.647C27.9408 181.647 29.0558 180.532 29.0558 179.157C29.0558 177.781 27.9408 176.666 26.5653 176.666C25.1898 176.666 24.0748 177.781 24.0748 179.157C24.0748 180.532 25.1898 181.647 26.5653 181.647Z" fill="#C2B7ED"/>
<path d="M34.0343 181.647C35.4098 181.647 36.5248 180.532 36.5248 179.157C36.5248 177.781 35.4098 176.666 34.0343 176.666C32.6588 176.666 31.5438 177.781 31.5438 179.157C31.5438 180.532 32.6588 181.647 34.0343 181.647Z" fill="#C2B7ED"/>
<path d="M41.5095 181.647C42.885 181.647 44 180.532 44 179.157C44 177.781 42.885 176.666 41.5095 176.666C40.134 176.666 39.0189 177.781 39.0189 179.157C39.0189 180.532 40.134 181.647 41.5095 181.647Z" fill="#C2B7ED"/>
<path d="M2.49054 189.949C3.86603 189.949 4.98108 188.834 4.98108 187.458C4.98108 186.083 3.86603 184.968 2.49054 184.968C1.11505 184.968 0 186.083 0 187.458C0 188.834 1.11505 189.949 2.49054 189.949Z" fill="#C2B7ED"/>
<path d="M10.7878 189.949C12.1633 189.949 13.2783 188.834 13.2783 187.458C13.2783 186.083 12.1633 184.968 10.7878 184.968C9.41229 184.968 8.29724 186.083 8.29724 187.458C8.29724 188.834 9.41229 189.949 10.7878 189.949Z" fill="#C2B7ED"/>
<path d="M18.262 189.949C19.6375 189.949 20.7525 188.834 20.7525 187.458C20.7525 186.083 19.6375 184.968 18.262 184.968C16.8865 184.968 15.7714 186.083 15.7714 187.458C15.7714 188.834 16.8865 189.949 18.262 189.949Z" fill="#C2B7ED"/>
<path d="M26.5653 189.949C27.9408 189.949 29.0558 188.834 29.0558 187.458C29.0558 186.083 27.9408 184.968 26.5653 184.968C25.1898 184.968 24.0748 186.083 24.0748 187.458C24.0748 188.834 25.1898 189.949 26.5653 189.949Z" fill="#C2B7ED"/>
<path d="M34.0343 189.949C35.4098 189.949 36.5248 188.834 36.5248 187.458C36.5248 186.083 35.4098 184.968 34.0343 184.968C32.6588 184.968 31.5438 186.083 31.5438 187.458C31.5438 188.834 32.6588 189.949 34.0343 189.949Z" fill="#C2B7ED"/>
<path d="M41.5095 189.949C42.885 189.949 44 188.834 44 187.458C44 186.083 42.885 184.968 41.5095 184.968C40.134 184.968 39.0189 186.083 39.0189 187.458C39.0189 188.834 40.134 189.949 41.5095 189.949Z" fill="#C2B7ED"/>
<path d="M2.49054 197.42C3.86603 197.42 4.98108 196.304 4.98108 194.929C4.98108 193.554 3.86603 192.438 2.49054 192.438C1.11505 192.438 0 193.554 0 194.929C0 196.304 1.11505 197.42 2.49054 197.42Z" fill="#C2B7ED"/>
<path d="M10.7878 197.42C12.1632 197.42 13.2783 196.304 13.2783 194.929C13.2783 193.554 12.1632 192.438 10.7878 192.438C9.41226 192.438 8.29721 193.554 8.29721 194.929C8.29721 196.304 9.41226 197.42 10.7878 197.42Z" fill="#C2B7ED"/>
<path d="M18.262 197.42C19.6375 197.42 20.7525 196.304 20.7525 194.929C20.7525 193.554 19.6375 192.438 18.262 192.438C16.8865 192.438 15.7714 193.554 15.7714 194.929C15.7714 196.304 16.8865 197.42 18.262 197.42Z" fill="#C2B7ED"/>
<path d="M26.5653 197.42C27.9408 197.42 29.0559 196.304 29.0559 194.929C29.0559 193.554 27.9408 192.438 26.5653 192.438C25.1899 192.438 24.0748 193.554 24.0748 194.929C24.0748 196.304 25.1899 197.42 26.5653 197.42Z" fill="#C2B7ED"/>
<path d="M34.0343 197.42C35.4098 197.42 36.5249 196.304 36.5249 194.929C36.5249 193.554 35.4098 192.438 34.0343 192.438C32.6588 192.438 31.5438 193.554 31.5438 194.929C31.5438 196.304 32.6588 197.42 34.0343 197.42Z" fill="#C2B7ED"/>
<path d="M41.5095 197.42C42.885 197.42 44 196.304 44 194.929C44 193.554 42.885 192.438 41.5095 192.438C40.134 192.438 39.0189 193.554 39.0189 194.929C39.0189 196.304 40.134 197.42 41.5095 197.42Z" fill="#C2B7ED"/>
<path d="M2.49054 204.89C3.86603 204.89 4.98108 203.775 4.98108 202.4C4.98108 201.024 3.86603 199.909 2.49054 199.909C1.11505 199.909 0 201.024 0 202.4C0 203.775 1.11505 204.89 2.49054 204.89Z" fill="#C2B7ED"/>
<path d="M10.7878 204.89C12.1632 204.89 13.2783 203.775 13.2783 202.4C13.2783 201.024 12.1632 199.909 10.7878 199.909C9.41226 199.909 8.29721 201.024 8.29721 202.4C8.29721 203.775 9.41226 204.89 10.7878 204.89Z" fill="#C2B7ED"/>
<path d="M18.262 204.89C19.6375 204.89 20.7525 203.775 20.7525 202.4C20.7525 201.024 19.6375 199.909 18.262 199.909C16.8865 199.909 15.7714 201.024 15.7714 202.4C15.7714 203.775 16.8865 204.89 18.262 204.89Z" fill="#C2B7ED"/>
<path d="M26.5653 204.89C27.9408 204.89 29.0559 203.775 29.0559 202.4C29.0559 201.024 27.9408 199.909 26.5653 199.909C25.1899 199.909 24.0748 201.024 24.0748 202.4C24.0748 203.775 25.1899 204.89 26.5653 204.89Z" fill="#C2B7ED"/>
<path d="M34.0343 204.89C35.4098 204.89 36.5249 203.775 36.5249 202.4C36.5249 201.024 35.4098 199.909 34.0343 199.909C32.6588 199.909 31.5438 201.024 31.5438 202.4C31.5438 203.775 32.6588 204.89 34.0343 204.89Z" fill="#C2B7ED"/>
<path d="M41.5095 204.89C42.885 204.89 44 203.775 44 202.4C44 201.024 42.885 199.909 41.5095 199.909C40.134 199.909 39.0189 201.024 39.0189 202.4C39.0189 203.775 40.134 204.89 41.5095 204.89Z" fill="#C2B7ED"/>
<path d="M2.49054 213.194C3.86603 213.194 4.98108 212.079 4.98108 210.703C4.98108 209.328 3.86603 208.213 2.49054 208.213C1.11505 208.213 0 209.328 0 210.703C0 212.079 1.11505 213.194 2.49054 213.194Z" fill="#C2B7ED"/>
<path d="M10.7878 213.194C12.1633 213.194 13.2783 212.079 13.2783 210.703C13.2783 209.328 12.1633 208.213 10.7878 208.213C9.41229 208.213 8.29724 209.328 8.29724 210.703C8.29724 212.079 9.41229 213.194 10.7878 213.194Z" fill="#C2B7ED"/>
<path d="M18.262 213.194C19.6375 213.194 20.7525 212.079 20.7525 210.703C20.7525 209.328 19.6375 208.213 18.262 208.213C16.8865 208.213 15.7714 209.328 15.7714 210.703C15.7714 212.079 16.8865 213.194 18.262 213.194Z" fill="#C2B7ED"/>
<path d="M26.5653 213.194C27.9408 213.194 29.0558 212.079 29.0558 210.703C29.0558 209.328 27.9408 208.213 26.5653 208.213C25.1898 208.213 24.0748 209.328 24.0748 210.703C24.0748 212.079 25.1898 213.194 26.5653 213.194Z" fill="#C2B7ED"/>
<path d="M34.0343 213.194C35.4098 213.194 36.5248 212.079 36.5248 210.703C36.5248 209.328 35.4098 208.213 34.0343 208.213C32.6588 208.213 31.5438 209.328 31.5438 210.703C31.5438 212.079 32.6588 213.194 34.0343 213.194Z" fill="#C2B7ED"/>
<path d="M2.49054 220.665C3.86603 220.665 4.98108 219.55 4.98108 218.174C4.98108 216.799 3.86603 215.684 2.49054 215.684C1.11505 215.684 0 216.799 0 218.174C0 219.55 1.11505 220.665 2.49054 220.665Z" fill="#C2B7ED"/>
<path d="M18.262 220.665C19.6375 220.665 20.7525 219.55 20.7525 218.174C20.7525 216.799 19.6375 215.684 18.262 215.684C16.8865 215.684 15.7714 216.799 15.7714 218.174C15.7714 219.55 16.8865 220.665 18.262 220.665Z" fill="#C2B7ED"/>
<path d="M26.5653 220.665C27.9408 220.665 29.0559 219.55 29.0559 218.174C29.0559 216.799 27.9408 215.684 26.5653 215.684C25.1899 215.684 24.0748 216.799 24.0748 218.174C24.0748 219.55 25.1899 220.665 26.5653 220.665Z" fill="#C2B7ED"/>
<path d="M34.0343 220.665C35.4098 220.665 36.5249 219.55 36.5249 218.174C36.5249 216.799 35.4098 215.684 34.0343 215.684C32.6588 215.684 31.5438 216.799 31.5438 218.174C31.5438 219.55 32.6588 220.665 34.0343 220.665Z" fill="#C2B7ED"/>
<path d="M2.49054 228.136C3.86603 228.136 4.98108 227.021 4.98108 225.646C4.98108 224.27 3.86603 223.155 2.49054 223.155C1.11505 223.155 0 224.27 0 225.646C0 227.021 1.11505 228.136 2.49054 228.136Z" fill="#C2B7ED"/>
<path d="M18.262 228.136C19.6375 228.136 20.7525 227.021 20.7525 225.646C20.7525 224.27 19.6375 223.155 18.262 223.155C16.8865 223.155 15.7714 224.27 15.7714 225.646C15.7714 227.021 16.8865 228.136 18.262 228.136Z" fill="#C2B7ED"/>
<path d="M26.5653 228.136C27.9408 228.136 29.0559 227.021 29.0559 225.646C29.0559 224.27 27.9408 223.155 26.5653 223.155C25.1899 223.155 24.0748 224.27 24.0748 225.646C24.0748 227.021 25.1899 228.136 26.5653 228.136Z" fill="#C2B7ED"/>
<path d="M2.49054 236.44C3.86603 236.44 4.98108 235.325 4.98108 233.95C4.98108 232.574 3.86603 231.459 2.49054 231.459C1.11505 231.459 0 232.574 0 233.95C0 235.325 1.11505 236.44 2.49054 236.44Z" fill="#C2B7ED"/>
<path d="M26.5653 236.44C27.9408 236.44 29.0558 235.325 29.0558 233.95C29.0558 232.574 27.9408 231.459 26.5653 231.459C25.1898 231.459 24.0748 232.574 24.0748 233.95C24.0748 235.325 25.1898 236.44 26.5653 236.44Z" fill="#C2B7ED"/>
<path d="M2.49054 243.91C3.86603 243.91 4.98108 242.795 4.98108 241.419C4.98108 240.044 3.86603 238.929 2.49054 238.929C1.11505 238.929 0 240.044 0 241.419C0 242.795 1.11505 243.91 2.49054 243.91Z" fill="#C2B7ED"/>
<path d="M10.7878 243.91C12.1632 243.91 13.2783 242.795 13.2783 241.419C13.2783 240.044 12.1632 238.929 10.7878 238.929C9.41226 238.929 8.29721 240.044 8.29721 241.419C8.29721 242.795 9.41226 243.91 10.7878 243.91Z" fill="#C2B7ED"/>
<path d="M2.49054 252.213C3.86603 252.213 4.98108 251.097 4.98108 249.722C4.98108 248.347 3.86603 247.231 2.49054 247.231C1.11505 247.231 0 248.347 0 249.722C0 251.097 1.11505 252.213 2.49054 252.213Z" fill="#C2B7ED"/>
<path d="M2.49054 259.683C3.86603 259.683 4.98108 258.568 4.98108 257.193C4.98108 255.817 3.86603 254.702 2.49054 254.702C1.11505 254.702 0 255.817 0 257.193C0 258.568 1.11505 259.683 2.49054 259.683Z" fill="#C2B7ED"/>
<path d="M2.49054 267.157C3.86603 267.157 4.98108 266.042 4.98108 264.666C4.98108 263.291 3.86603 262.176 2.49054 262.176C1.11505 262.176 0 263.291 0 264.666C0 266.042 1.11505 267.157 2.49054 267.157Z" fill="#C2B7ED"/>
<path d="M2.49054 275.458C3.86603 275.458 4.98108 274.343 4.98108 272.967C4.98108 271.592 3.86603 270.477 2.49054 270.477C1.11505 270.477 0 271.592 0 272.967C0 274.343 1.11505 275.458 2.49054 275.458Z" fill="#C2B7ED"/>
</g>
</svg>
