<svg width="57" height="58" viewBox="0 0 57 58" fill="none" xmlns="http://www.w3.org/2000/svg">
<path d="M28.023 0.814061C28.0711 0.228137 28.9289 0.228144 28.977 0.814067L30.7311 22.1967C30.763 22.5856 31.222 22.7749 31.5188 22.5216L47.7821 8.64216C48.229 8.26075 48.8372 8.8647 48.459 9.31429L34.6669 25.707C34.4168 26.0042 34.6063 26.4598 34.9934 26.492L56.2687 28.2624C56.8538 28.3111 56.8538 29.1675 56.2687 29.2162L34.9934 30.9866C34.6063 31.0188 34.4168 31.4744 34.6669 31.7716L48.459 48.1643C48.8372 48.6139 48.229 49.2178 47.7821 48.8364L31.5188 34.957C31.222 34.7037 30.763 34.893 30.7311 35.2819L28.977 56.6645C28.9289 57.2504 28.0711 57.2504 28.023 56.6645L26.2689 35.2819C26.237 34.893 25.778 34.7037 25.4812 34.957L9.21791 48.8364C8.77099 49.2178 8.16278 48.6139 8.54105 48.1643L22.3331 31.7716C22.5832 31.4744 22.3937 31.0188 22.0066 30.9866L0.731342 29.2162C0.146162 29.1675 0.146156 28.3111 0.731336 28.2624L22.0066 26.492C22.3937 26.4598 22.5832 26.0042 22.3331 25.707L8.54105 9.31429C8.16278 8.8647 8.77099 8.26075 9.21792 8.64216L25.4812 22.5216C25.778 22.7749 26.237 22.5856 26.2689 22.1967L28.023 0.814061Z" fill="#FFD966"/>
</svg>
